<mxfile host="app.diagrams.net" agent="Mozilla/5.0 (X11; Linux x86_64; rv:134.0) Gecko/20100101 Firefox/134.0" version="26.2.13">
  <diagram name="Page-1" id="9__82_eAbEjZO9PPyrta">
    <mxGraphModel dx="90" dy="457" grid="1" gridSize="10" guides="1" tooltips="1" connect="1" arrows="1" fold="1" page="1" pageScale="1" pageWidth="850" pageHeight="1100" math="0" shadow="0">
      <root>
        <mxCell id="0" />
        <mxCell id="1" parent="0" />
        <mxCell id="r7wyYBLL0XZj7aMqEqxV-79" style="edgeStyle=orthogonalEdgeStyle;rounded=0;orthogonalLoop=1;jettySize=auto;html=1;entryX=0.5;entryY=0;entryDx=0;entryDy=0;" parent="1" source="r7wyYBLL0XZj7aMqEqxV-25" target="r7wyYBLL0XZj7aMqEqxV-26" edge="1">
          <mxGeometry relative="1" as="geometry" />
        </mxCell>
        <mxCell id="r7wyYBLL0XZj7aMqEqxV-25" value="Query Input" style="rounded=1;whiteSpace=wrap;html=1;" parent="1" vertex="1">
          <mxGeometry x="1800" y="40" width="120" height="40" as="geometry" />
        </mxCell>
        <mxCell id="n8uGCV62jKbJ6CnHqeqC-1" style="edgeStyle=orthogonalEdgeStyle;rounded=0;orthogonalLoop=1;jettySize=auto;html=1;" edge="1" parent="1" source="r7wyYBLL0XZj7aMqEqxV-26" target="r7wyYBLL0XZj7aMqEqxV-30">
          <mxGeometry relative="1" as="geometry" />
        </mxCell>
        <mxCell id="n8uGCV62jKbJ6CnHqeqC-2" style="edgeStyle=orthogonalEdgeStyle;rounded=0;orthogonalLoop=1;jettySize=auto;html=1;entryX=0.5;entryY=0;entryDx=0;entryDy=0;" edge="1" parent="1" source="r7wyYBLL0XZj7aMqEqxV-26" target="r7wyYBLL0XZj7aMqEqxV-29">
          <mxGeometry relative="1" as="geometry" />
        </mxCell>
        <mxCell id="n8uGCV62jKbJ6CnHqeqC-3" style="edgeStyle=orthogonalEdgeStyle;rounded=0;orthogonalLoop=1;jettySize=auto;html=1;entryX=0.5;entryY=0;entryDx=0;entryDy=0;" edge="1" parent="1" source="r7wyYBLL0XZj7aMqEqxV-26" target="r7wyYBLL0XZj7aMqEqxV-27">
          <mxGeometry relative="1" as="geometry" />
        </mxCell>
        <mxCell id="r7wyYBLL0XZj7aMqEqxV-26" value="Intent Classification" style="rounded=1;whiteSpace=wrap;html=1;" parent="1" vertex="1">
          <mxGeometry x="1800" y="120" width="120" height="40" as="geometry" />
        </mxCell>
        <mxCell id="n8uGCV62jKbJ6CnHqeqC-21" style="edgeStyle=orthogonalEdgeStyle;rounded=0;orthogonalLoop=1;jettySize=auto;html=1;entryX=0.5;entryY=0;entryDx=0;entryDy=0;" edge="1" parent="1" source="r7wyYBLL0XZj7aMqEqxV-27" target="r7wyYBLL0XZj7aMqEqxV-28">
          <mxGeometry relative="1" as="geometry" />
        </mxCell>
        <mxCell id="r7wyYBLL0XZj7aMqEqxV-27" value="Semantic Search in Vector DB" style="rounded=1;whiteSpace=wrap;html=1;" parent="1" vertex="1">
          <mxGeometry x="1640" y="240" width="120" height="40" as="geometry" />
        </mxCell>
        <mxCell id="n8uGCV62jKbJ6CnHqeqC-19" style="edgeStyle=orthogonalEdgeStyle;rounded=0;orthogonalLoop=1;jettySize=auto;html=1;entryX=0.5;entryY=0;entryDx=0;entryDy=0;" edge="1" parent="1" source="r7wyYBLL0XZj7aMqEqxV-28" target="r7wyYBLL0XZj7aMqEqxV-31">
          <mxGeometry relative="1" as="geometry">
            <Array as="points">
              <mxPoint x="1580" y="380" />
            </Array>
          </mxGeometry>
        </mxCell>
        <mxCell id="r7wyYBLL0XZj7aMqEqxV-28" value="Relevant Content Found?" style="rhombus;whiteSpace=wrap;html=1;" parent="1" vertex="1">
          <mxGeometry x="1640" y="320" width="120" height="120" as="geometry" />
        </mxCell>
        <mxCell id="n8uGCV62jKbJ6CnHqeqC-22" style="edgeStyle=orthogonalEdgeStyle;rounded=0;orthogonalLoop=1;jettySize=auto;html=1;entryX=0.5;entryY=0;entryDx=0;entryDy=0;" edge="1" parent="1" source="r7wyYBLL0XZj7aMqEqxV-29" target="r7wyYBLL0XZj7aMqEqxV-39">
          <mxGeometry relative="1" as="geometry">
            <Array as="points">
              <mxPoint x="1860" y="360" />
              <mxPoint x="1960" y="360" />
            </Array>
          </mxGeometry>
        </mxCell>
        <mxCell id="r7wyYBLL0XZj7aMqEqxV-29" value="Resource Finder" style="rounded=1;whiteSpace=wrap;html=1;" parent="1" vertex="1">
          <mxGeometry x="1800" y="240" width="120" height="40" as="geometry" />
        </mxCell>
        <mxCell id="n8uGCV62jKbJ6CnHqeqC-26" style="edgeStyle=orthogonalEdgeStyle;rounded=0;orthogonalLoop=1;jettySize=auto;html=1;entryX=0.5;entryY=0;entryDx=0;entryDy=0;" edge="1" parent="1" source="r7wyYBLL0XZj7aMqEqxV-30" target="r7wyYBLL0XZj7aMqEqxV-42">
          <mxGeometry relative="1" as="geometry" />
        </mxCell>
        <mxCell id="r7wyYBLL0XZj7aMqEqxV-30" value="Text-to-Speech Modele" style="rounded=1;whiteSpace=wrap;html=1;" parent="1" vertex="1">
          <mxGeometry x="1960" y="240" width="120" height="40" as="geometry" />
        </mxCell>
        <mxCell id="n8uGCV62jKbJ6CnHqeqC-18" style="edgeStyle=orthogonalEdgeStyle;rounded=0;orthogonalLoop=1;jettySize=auto;html=1;entryX=0.5;entryY=0;entryDx=0;entryDy=0;" edge="1" parent="1" source="r7wyYBLL0XZj7aMqEqxV-31" target="r7wyYBLL0XZj7aMqEqxV-33">
          <mxGeometry relative="1" as="geometry" />
        </mxCell>
        <mxCell id="r7wyYBLL0XZj7aMqEqxV-31" value="Fallback System" style="rounded=1;whiteSpace=wrap;html=1;" parent="1" vertex="1">
          <mxGeometry x="1520" y="480" width="120" height="40" as="geometry" />
        </mxCell>
        <mxCell id="n8uGCV62jKbJ6CnHqeqC-23" style="edgeStyle=orthogonalEdgeStyle;rounded=0;orthogonalLoop=1;jettySize=auto;html=1;entryX=0.25;entryY=0;entryDx=0;entryDy=0;" edge="1" parent="1" source="r7wyYBLL0XZj7aMqEqxV-32" target="r7wyYBLL0XZj7aMqEqxV-39">
          <mxGeometry relative="1" as="geometry" />
        </mxCell>
        <mxCell id="r7wyYBLL0XZj7aMqEqxV-32" value="Retrieve from DB" style="rounded=1;whiteSpace=wrap;html=1;" parent="1" vertex="1">
          <mxGeometry x="1760" y="480" width="120" height="40" as="geometry" />
        </mxCell>
        <mxCell id="n8uGCV62jKbJ6CnHqeqC-10" style="edgeStyle=orthogonalEdgeStyle;rounded=0;orthogonalLoop=1;jettySize=auto;html=1;" edge="1" parent="1" source="r7wyYBLL0XZj7aMqEqxV-33" target="r7wyYBLL0XZj7aMqEqxV-34">
          <mxGeometry relative="1" as="geometry" />
        </mxCell>
        <mxCell id="n8uGCV62jKbJ6CnHqeqC-11" style="edgeStyle=orthogonalEdgeStyle;rounded=0;orthogonalLoop=1;jettySize=auto;html=1;exitX=0.25;exitY=1;exitDx=0;exitDy=0;entryX=0.5;entryY=0;entryDx=0;entryDy=0;" edge="1" parent="1" source="r7wyYBLL0XZj7aMqEqxV-33" target="r7wyYBLL0XZj7aMqEqxV-35">
          <mxGeometry relative="1" as="geometry" />
        </mxCell>
        <mxCell id="n8uGCV62jKbJ6CnHqeqC-12" style="edgeStyle=orthogonalEdgeStyle;rounded=0;orthogonalLoop=1;jettySize=auto;html=1;exitX=0.75;exitY=1;exitDx=0;exitDy=0;entryX=0.5;entryY=0;entryDx=0;entryDy=0;" edge="1" parent="1" source="r7wyYBLL0XZj7aMqEqxV-33" target="r7wyYBLL0XZj7aMqEqxV-36">
          <mxGeometry relative="1" as="geometry" />
        </mxCell>
        <mxCell id="n8uGCV62jKbJ6CnHqeqC-13" style="edgeStyle=orthogonalEdgeStyle;rounded=0;orthogonalLoop=1;jettySize=auto;html=1;entryX=0.5;entryY=0;entryDx=0;entryDy=0;" edge="1" parent="1" source="r7wyYBLL0XZj7aMqEqxV-33" target="r7wyYBLL0XZj7aMqEqxV-37">
          <mxGeometry relative="1" as="geometry" />
        </mxCell>
        <mxCell id="r7wyYBLL0XZj7aMqEqxV-33" value="Query External Sources" style="rounded=1;whiteSpace=wrap;html=1;" parent="1" vertex="1">
          <mxGeometry x="1520" y="560" width="120" height="40" as="geometry" />
        </mxCell>
        <mxCell id="n8uGCV62jKbJ6CnHqeqC-14" style="edgeStyle=orthogonalEdgeStyle;rounded=0;orthogonalLoop=1;jettySize=auto;html=1;entryX=0;entryY=0.5;entryDx=0;entryDy=0;" edge="1" parent="1" source="r7wyYBLL0XZj7aMqEqxV-34" target="r7wyYBLL0XZj7aMqEqxV-38">
          <mxGeometry relative="1" as="geometry">
            <Array as="points">
              <mxPoint x="1400" y="740" />
            </Array>
          </mxGeometry>
        </mxCell>
        <mxCell id="r7wyYBLL0XZj7aMqEqxV-34" value="Wikipedia API" style="rounded=1;whiteSpace=wrap;html=1;" parent="1" vertex="1">
          <mxGeometry x="1360" y="640" width="80" height="40" as="geometry" />
        </mxCell>
        <mxCell id="n8uGCV62jKbJ6CnHqeqC-15" style="edgeStyle=orthogonalEdgeStyle;rounded=0;orthogonalLoop=1;jettySize=auto;html=1;entryX=0.25;entryY=0;entryDx=0;entryDy=0;" edge="1" parent="1" source="r7wyYBLL0XZj7aMqEqxV-35" target="r7wyYBLL0XZj7aMqEqxV-38">
          <mxGeometry relative="1" as="geometry" />
        </mxCell>
        <mxCell id="r7wyYBLL0XZj7aMqEqxV-35" value="ArXiv API" style="rounded=1;whiteSpace=wrap;html=1;" parent="1" vertex="1">
          <mxGeometry x="1480" y="640" width="80" height="40" as="geometry" />
        </mxCell>
        <mxCell id="r7wyYBLL0XZj7aMqEqxV-36" value="DuckDuckGo" style="rounded=1;whiteSpace=wrap;html=1;" parent="1" vertex="1">
          <mxGeometry x="1600" y="640" width="80" height="40" as="geometry" />
        </mxCell>
        <mxCell id="n8uGCV62jKbJ6CnHqeqC-17" style="edgeStyle=orthogonalEdgeStyle;rounded=0;orthogonalLoop=1;jettySize=auto;html=1;entryX=1;entryY=0.5;entryDx=0;entryDy=0;" edge="1" parent="1" source="r7wyYBLL0XZj7aMqEqxV-37" target="r7wyYBLL0XZj7aMqEqxV-38">
          <mxGeometry relative="1" as="geometry">
            <Array as="points">
              <mxPoint x="1760" y="740" />
            </Array>
          </mxGeometry>
        </mxCell>
        <mxCell id="r7wyYBLL0XZj7aMqEqxV-37" value="Youtube Data API" style="rounded=1;whiteSpace=wrap;html=1;" parent="1" vertex="1">
          <mxGeometry x="1720" y="640" width="80" height="40" as="geometry" />
        </mxCell>
        <mxCell id="n8uGCV62jKbJ6CnHqeqC-24" style="edgeStyle=orthogonalEdgeStyle;rounded=0;orthogonalLoop=1;jettySize=auto;html=1;entryX=0.25;entryY=1;entryDx=0;entryDy=0;" edge="1" parent="1" source="r7wyYBLL0XZj7aMqEqxV-38" target="r7wyYBLL0XZj7aMqEqxV-39">
          <mxGeometry relative="1" as="geometry">
            <Array as="points">
              <mxPoint x="1580" y="780" />
              <mxPoint x="1920" y="780" />
            </Array>
          </mxGeometry>
        </mxCell>
        <mxCell id="r7wyYBLL0XZj7aMqEqxV-38" value="Aggregate Results" style="rounded=1;whiteSpace=wrap;html=1;" parent="1" vertex="1">
          <mxGeometry x="1520" y="720" width="120" height="40" as="geometry" />
        </mxCell>
        <mxCell id="n8uGCV62jKbJ6CnHqeqC-31" style="edgeStyle=orthogonalEdgeStyle;rounded=0;orthogonalLoop=1;jettySize=auto;html=1;entryX=0;entryY=0.5;entryDx=0;entryDy=0;" edge="1" parent="1" source="r7wyYBLL0XZj7aMqEqxV-39" target="r7wyYBLL0XZj7aMqEqxV-40">
          <mxGeometry relative="1" as="geometry" />
        </mxCell>
        <mxCell id="r7wyYBLL0XZj7aMqEqxV-39" value="Format Response" style="rounded=1;whiteSpace=wrap;html=1;" parent="1" vertex="1">
          <mxGeometry x="1880" y="720" width="160" height="40" as="geometry" />
        </mxCell>
        <mxCell id="n8uGCV62jKbJ6CnHqeqC-27" style="edgeStyle=orthogonalEdgeStyle;rounded=0;orthogonalLoop=1;jettySize=auto;html=1;entryX=0.5;entryY=1;entryDx=0;entryDy=0;" edge="1" parent="1" source="r7wyYBLL0XZj7aMqEqxV-40" target="r7wyYBLL0XZj7aMqEqxV-42">
          <mxGeometry relative="1" as="geometry" />
        </mxCell>
        <mxCell id="n8uGCV62jKbJ6CnHqeqC-29" value="" style="edgeStyle=orthogonalEdgeStyle;rounded=0;orthogonalLoop=1;jettySize=auto;html=1;" edge="1" parent="1" source="r7wyYBLL0XZj7aMqEqxV-40" target="r7wyYBLL0XZj7aMqEqxV-41">
          <mxGeometry relative="1" as="geometry">
            <Array as="points">
              <mxPoint x="2140" y="820" />
            </Array>
          </mxGeometry>
        </mxCell>
        <mxCell id="n8uGCV62jKbJ6CnHqeqC-30" style="edgeStyle=orthogonalEdgeStyle;rounded=0;orthogonalLoop=1;jettySize=auto;html=1;entryX=0;entryY=0.5;entryDx=0;entryDy=0;" edge="1" parent="1" source="r7wyYBLL0XZj7aMqEqxV-40" target="r7wyYBLL0XZj7aMqEqxV-43">
          <mxGeometry relative="1" as="geometry" />
        </mxCell>
        <mxCell id="r7wyYBLL0XZj7aMqEqxV-40" value="Output Type" style="rhombus;whiteSpace=wrap;html=1;" parent="1" vertex="1">
          <mxGeometry x="2080" y="680" width="120" height="120" as="geometry" />
        </mxCell>
        <mxCell id="n8uGCV62jKbJ6CnHqeqC-32" style="edgeStyle=orthogonalEdgeStyle;rounded=0;orthogonalLoop=1;jettySize=auto;html=1;entryX=1;entryY=0.5;entryDx=0;entryDy=0;" edge="1" parent="1" source="r7wyYBLL0XZj7aMqEqxV-41" target="r7wyYBLL0XZj7aMqEqxV-25">
          <mxGeometry relative="1" as="geometry">
            <Array as="points">
              <mxPoint x="2440" y="820" />
              <mxPoint x="2440" y="60" />
            </Array>
          </mxGeometry>
        </mxCell>
        <mxCell id="r7wyYBLL0XZj7aMqEqxV-41" value="Rich Text Response" style="rounded=1;whiteSpace=wrap;html=1;" parent="1" vertex="1">
          <mxGeometry x="2200" y="800" width="160" height="40" as="geometry" />
        </mxCell>
        <mxCell id="n8uGCV62jKbJ6CnHqeqC-34" style="edgeStyle=orthogonalEdgeStyle;rounded=0;orthogonalLoop=1;jettySize=auto;html=1;" edge="1" parent="1" source="r7wyYBLL0XZj7aMqEqxV-42">
          <mxGeometry relative="1" as="geometry">
            <mxPoint x="1920" y="60" as="targetPoint" />
            <Array as="points">
              <mxPoint x="2260" y="620" />
              <mxPoint x="2260" y="60" />
            </Array>
          </mxGeometry>
        </mxCell>
        <mxCell id="r7wyYBLL0XZj7aMqEqxV-42" value="TTS Output" style="rounded=1;whiteSpace=wrap;html=1;" parent="1" vertex="1">
          <mxGeometry x="2060" y="600" width="160" height="40" as="geometry" />
        </mxCell>
        <mxCell id="n8uGCV62jKbJ6CnHqeqC-33" style="edgeStyle=orthogonalEdgeStyle;rounded=0;orthogonalLoop=1;jettySize=auto;html=1;entryX=1;entryY=0.5;entryDx=0;entryDy=0;" edge="1" parent="1" source="r7wyYBLL0XZj7aMqEqxV-43" target="r7wyYBLL0XZj7aMqEqxV-25">
          <mxGeometry relative="1" as="geometry">
            <Array as="points">
              <mxPoint x="2320" y="60" />
            </Array>
          </mxGeometry>
        </mxCell>
        <mxCell id="r7wyYBLL0XZj7aMqEqxV-43" value="Links &amp;amp; Materials" style="rounded=1;whiteSpace=wrap;html=1;" parent="1" vertex="1">
          <mxGeometry x="2240" y="720" width="160" height="40" as="geometry" />
        </mxCell>
        <mxCell id="n8uGCV62jKbJ6CnHqeqC-35" style="edgeStyle=orthogonalEdgeStyle;rounded=0;orthogonalLoop=1;jettySize=auto;html=1;entryX=0;entryY=0.5;entryDx=0;entryDy=0;" edge="1" parent="1" source="r7wyYBLL0XZj7aMqEqxV-44" target="r7wyYBLL0XZj7aMqEqxV-25">
          <mxGeometry relative="1" as="geometry" />
        </mxCell>
        <mxCell id="n8uGCV62jKbJ6CnHqeqC-36" style="edgeStyle=orthogonalEdgeStyle;rounded=0;orthogonalLoop=1;jettySize=auto;html=1;entryX=0.5;entryY=0;entryDx=0;entryDy=0;" edge="1" parent="1" source="r7wyYBLL0XZj7aMqEqxV-44" target="r7wyYBLL0XZj7aMqEqxV-45">
          <mxGeometry relative="1" as="geometry" />
        </mxCell>
        <mxCell id="r7wyYBLL0XZj7aMqEqxV-44" value="&lt;div&gt;User&lt;/div&gt;" style="rounded=1;whiteSpace=wrap;html=1;" parent="1" vertex="1">
          <mxGeometry x="1120" y="40" width="120" height="40" as="geometry" />
        </mxCell>
        <mxCell id="r7wyYBLL0XZj7aMqEqxV-80" style="edgeStyle=orthogonalEdgeStyle;rounded=0;orthogonalLoop=1;jettySize=auto;html=1;" parent="1" source="r7wyYBLL0XZj7aMqEqxV-45" target="r7wyYBLL0XZj7aMqEqxV-48" edge="1">
          <mxGeometry relative="1" as="geometry" />
        </mxCell>
        <mxCell id="r7wyYBLL0XZj7aMqEqxV-83" value="PDF + Image" style="edgeLabel;html=1;align=center;verticalAlign=middle;resizable=0;points=[];" parent="r7wyYBLL0XZj7aMqEqxV-80" vertex="1" connectable="0">
          <mxGeometry x="0.2496" y="1" relative="1" as="geometry">
            <mxPoint as="offset" />
          </mxGeometry>
        </mxCell>
        <mxCell id="n8uGCV62jKbJ6CnHqeqC-37" style="edgeStyle=orthogonalEdgeStyle;rounded=0;orthogonalLoop=1;jettySize=auto;html=1;entryX=0.5;entryY=0;entryDx=0;entryDy=0;" edge="1" parent="1" source="r7wyYBLL0XZj7aMqEqxV-45" target="r7wyYBLL0XZj7aMqEqxV-47">
          <mxGeometry relative="1" as="geometry" />
        </mxCell>
        <mxCell id="n8uGCV62jKbJ6CnHqeqC-38" value="Image Only" style="edgeLabel;html=1;align=center;verticalAlign=middle;resizable=0;points=[];" vertex="1" connectable="0" parent="n8uGCV62jKbJ6CnHqeqC-37">
          <mxGeometry x="-0.0853" y="-3" relative="1" as="geometry">
            <mxPoint as="offset" />
          </mxGeometry>
        </mxCell>
        <mxCell id="r7wyYBLL0XZj7aMqEqxV-45" value="File Type?" style="rhombus;whiteSpace=wrap;html=1;" parent="1" vertex="1">
          <mxGeometry x="1120" y="120" width="120" height="120" as="geometry" />
        </mxCell>
        <mxCell id="r7wyYBLL0XZj7aMqEqxV-72" style="edgeStyle=orthogonalEdgeStyle;rounded=0;orthogonalLoop=1;jettySize=auto;html=1;entryX=0;entryY=0.5;entryDx=0;entryDy=0;" parent="1" source="r7wyYBLL0XZj7aMqEqxV-46" target="r7wyYBLL0XZj7aMqEqxV-49" edge="1">
          <mxGeometry relative="1" as="geometry">
            <Array as="points">
              <mxPoint x="1020" y="415" />
            </Array>
          </mxGeometry>
        </mxCell>
        <mxCell id="r7wyYBLL0XZj7aMqEqxV-46" value="PyMuPDF" style="rounded=1;whiteSpace=wrap;html=1;" parent="1" vertex="1">
          <mxGeometry x="960" y="320" width="120" height="40" as="geometry" />
        </mxCell>
        <mxCell id="r7wyYBLL0XZj7aMqEqxV-71" style="edgeStyle=orthogonalEdgeStyle;rounded=0;orthogonalLoop=1;jettySize=auto;html=1;entryX=0.5;entryY=0;entryDx=0;entryDy=0;" parent="1" source="r7wyYBLL0XZj7aMqEqxV-47" target="r7wyYBLL0XZj7aMqEqxV-49" edge="1">
          <mxGeometry relative="1" as="geometry" />
        </mxCell>
        <mxCell id="r7wyYBLL0XZj7aMqEqxV-47" value="Tesseract OCR" style="rounded=1;whiteSpace=wrap;html=1;" parent="1" vertex="1">
          <mxGeometry x="1120" y="320" width="120" height="40" as="geometry" />
        </mxCell>
        <mxCell id="r7wyYBLL0XZj7aMqEqxV-48" value="Combined Processing" style="rounded=1;whiteSpace=wrap;html=1;" parent="1" vertex="1">
          <mxGeometry x="1280" y="320" width="120" height="40" as="geometry" />
        </mxCell>
        <mxCell id="r7wyYBLL0XZj7aMqEqxV-76" style="edgeStyle=orthogonalEdgeStyle;rounded=0;orthogonalLoop=1;jettySize=auto;html=1;entryX=0.5;entryY=0;entryDx=0;entryDy=0;" parent="1" source="r7wyYBLL0XZj7aMqEqxV-49" target="r7wyYBLL0XZj7aMqEqxV-50" edge="1">
          <mxGeometry relative="1" as="geometry" />
        </mxCell>
        <mxCell id="r7wyYBLL0XZj7aMqEqxV-49" value="Text Preprocessing" style="rounded=1;whiteSpace=wrap;html=1;" parent="1" vertex="1">
          <mxGeometry x="1120" y="400" width="120" height="30" as="geometry" />
        </mxCell>
        <mxCell id="r7wyYBLL0XZj7aMqEqxV-77" style="edgeStyle=orthogonalEdgeStyle;rounded=0;orthogonalLoop=1;jettySize=auto;html=1;entryX=0.5;entryY=0;entryDx=0;entryDy=0;" parent="1" source="r7wyYBLL0XZj7aMqEqxV-50" target="r7wyYBLL0XZj7aMqEqxV-51" edge="1">
          <mxGeometry relative="1" as="geometry" />
        </mxCell>
        <mxCell id="r7wyYBLL0XZj7aMqEqxV-50" value="Generate Embeddings via HuggingFace" style="rounded=1;whiteSpace=wrap;html=1;" parent="1" vertex="1">
          <mxGeometry x="1120" y="480" width="120" height="80" as="geometry" />
        </mxCell>
        <mxCell id="r7wyYBLL0XZj7aMqEqxV-51" value="Store in AstraDB Vector Database" style="rounded=1;whiteSpace=wrap;html=1;" parent="1" vertex="1">
          <mxGeometry x="1120" y="600" width="120" height="80" as="geometry" />
        </mxCell>
        <mxCell id="r7wyYBLL0XZj7aMqEqxV-75" style="edgeStyle=orthogonalEdgeStyle;rounded=0;orthogonalLoop=1;jettySize=auto;html=1;entryX=1.019;entryY=0.611;entryDx=0;entryDy=0;entryPerimeter=0;" parent="1" source="r7wyYBLL0XZj7aMqEqxV-48" target="r7wyYBLL0XZj7aMqEqxV-49" edge="1">
          <mxGeometry relative="1" as="geometry">
            <Array as="points">
              <mxPoint x="1340" y="418" />
            </Array>
          </mxGeometry>
        </mxCell>
        <mxCell id="r7wyYBLL0XZj7aMqEqxV-81" style="edgeStyle=orthogonalEdgeStyle;rounded=0;orthogonalLoop=1;jettySize=auto;html=1;entryX=0.448;entryY=-0.039;entryDx=0;entryDy=0;entryPerimeter=0;" parent="1" source="r7wyYBLL0XZj7aMqEqxV-45" target="r7wyYBLL0XZj7aMqEqxV-46" edge="1">
          <mxGeometry relative="1" as="geometry" />
        </mxCell>
        <mxCell id="r7wyYBLL0XZj7aMqEqxV-82" value="PDF Only" style="edgeLabel;html=1;align=center;verticalAlign=middle;resizable=0;points=[];" parent="r7wyYBLL0XZj7aMqEqxV-81" vertex="1" connectable="0">
          <mxGeometry x="-0.0852" relative="1" as="geometry">
            <mxPoint y="44" as="offset" />
          </mxGeometry>
        </mxCell>
        <mxCell id="n8uGCV62jKbJ6CnHqeqC-16" style="edgeStyle=orthogonalEdgeStyle;rounded=0;orthogonalLoop=1;jettySize=auto;html=1;entryX=0.7;entryY=0;entryDx=0;entryDy=0;entryPerimeter=0;" edge="1" parent="1" source="r7wyYBLL0XZj7aMqEqxV-36" target="r7wyYBLL0XZj7aMqEqxV-38">
          <mxGeometry relative="1" as="geometry" />
        </mxCell>
        <mxCell id="n8uGCV62jKbJ6CnHqeqC-20" style="edgeStyle=orthogonalEdgeStyle;rounded=0;orthogonalLoop=1;jettySize=auto;html=1;entryX=0.6;entryY=0.075;entryDx=0;entryDy=0;entryPerimeter=0;" edge="1" parent="1" source="r7wyYBLL0XZj7aMqEqxV-28" target="r7wyYBLL0XZj7aMqEqxV-32">
          <mxGeometry relative="1" as="geometry">
            <Array as="points">
              <mxPoint x="1832" y="380" />
            </Array>
          </mxGeometry>
        </mxCell>
        <mxCell id="n8uGCV62jKbJ6CnHqeqC-41" value="" style="endArrow=none;dashed=1;html=1;rounded=0;entryX=1;entryY=0.5;entryDx=0;entryDy=0;exitX=0;exitY=0.5;exitDx=0;exitDy=0;" edge="1" parent="1" source="r7wyYBLL0XZj7aMqEqxV-32" target="r7wyYBLL0XZj7aMqEqxV-51">
          <mxGeometry width="50" height="50" relative="1" as="geometry">
            <mxPoint x="1030" y="600" as="sourcePoint" />
            <mxPoint x="1080" y="550" as="targetPoint" />
            <Array as="points">
              <mxPoint x="1640" y="440" />
              <mxPoint x="1320" y="440" />
              <mxPoint x="1320" y="640" />
            </Array>
          </mxGeometry>
        </mxCell>
      </root>
    </mxGraphModel>
  </diagram>
</mxfile>
